<?xml version="1.0" standalone="no"?>
<!DOCTYPE svg PUBLIC "-//W3C//DTD SVG 20010904//EN"
 "http://www.w3.org/TR/2001/REC-SVG-20010904/DTD/svg10.dtd">
<svg version="1.0" xmlns="http://www.w3.org/2000/svg"
 width="900" height="200"
 viewBox="0 0 900 200"
 preserveAspectRatio="xMidYMid meet" >
<metadata>
Created by potrace 1.10, written by Peter Selinger 2001-2011
</metadata>

<g transform="translate(-30.000000,250.000000) scale(0.100000,-0.100000)"
fill="#000000" stroke="none">
<path d="M430 1719 c-81 -33 -130 -106 -130 -194 0 -67 17 -109 59 -152 95
-95 254 -77 326 37 88 140 -13 321 -177 319 -29 0 -64 -5 -78 -10z m189 -37
c61 -49 81 -87 81 -154 0 -73 -17 -114 -63 -155 -65 -57 -134 -66 -214 -29
-151 70 -150 287 2 358 59 28 145 19 194 -20z"/>
<path d="M450 1530 l0 -100 65 0 c58 0 65 2 65 20 0 17 -7 20 -51 20 l-52 0 7
80 c6 76 5 80 -14 80 -19 0 -20 -6 -20 -100z"/>
<path d="M1823 1640 c-78 -35 -106 -123 -60 -191 46 -69 47 -69 485 -69 376 0
395 1 433 20 106 55 104 187 -5 239 -41 20 -58 21 -427 21 -357 0 -387 -2
-426 -20z m587 -3 c52 1 127 4 165 5 80 3 112 -11 145 -65 38 -61 15 -128 -54
-161 -30 -14 -85 -16 -428 -16 -363 0 -395 2 -421 18 -57 38 -73 93 -43 151
31 58 51 63 245 63 97 -1 185 3 196 8 11 5 38 6 60 2 22 -4 83 -6 135 -5z"/>
<path d="M2230 1530 c0 -93 1 -100 20 -100 19 0 20 7 20 100 0 93 -1 100 -20
100 -19 0 -20 -7 -20 -100z"/>
<path d="M2520 1610 c0 -15 7 -20 25 -20 25 0 25 -1 25 -80 0 -74 1 -80 21
-80 19 0 20 5 17 80 l-3 80 28 0 c20 0 27 5 27 20 0 18 -7 20 -70 20 -63 0
-70 -2 -70 -20z"/>
<path d="M1860 1450 c0 -18 7 -20 55 -20 48 0 55 2 55 20 0 18 -7 20 -55 20
-48 0 -55 -2 -55 -20z"/>
<path d="M830 1530 c0 -93 1 -100 20 -100 19 0 20 7 20 100 0 93 -1 100 -20
100 -19 0 -20 -7 -20 -100z"/>
<path d="M1142 1614 c-36 -25 -26 -63 26 -97 49 -33 46 -51 -9 -44 -46 6 -63
-18 -23 -33 59 -23 107 3 102 53 -2 25 -11 36 -40 52 -21 11 -38 26 -38 33 0
18 25 25 48 13 15 -8 23 -7 32 4 9 11 7 16 -9 24 -28 16 -63 14 -89 -5z"/>
<path d="M1480 1610 c0 -15 6 -20 25 -20 25 0 25 -1 25 -80 0 -75 1 -80 21
-80 20 0 21 4 18 80 -4 78 -4 79 21 82 14 2 25 9 25 18 0 12 -15 16 -67 18
-63 3 -68 1 -68 -18z"/>
</g>
</svg>
